<?xml version="1.0" encoding="UTF-8"?>
<svg id="Layer_1" data-name="Layer 1" xmlns="http://www.w3.org/2000/svg" viewBox="0 0 806.63 135">
  <defs>
    <style>
      .cls-1 {
        fill: #fff;
      }
    </style>
  </defs>
  <path class="cls-1" d="m85.34,72.13c-3.59-2.61-7.7-4.69-12.34-6.23-4.64-1.54-9.43-2.88-14.38-4.01-4.95-1.13-9.8-2.2-14.56-3.21-4.76-1.01-9.12-2.32-13.08-3.92-3.96-1.6-7.3-3.65-10.02-6.14-2.72-2.49-4.45-5.82-5.2-9.97-.62-3.32-.43-6.65.56-9.97.99-3.32,2.78-6.35,5.38-9.08,2.6-2.73,6.09-4.96,10.48-6.68,4.39-1.72,9.8-2.58,16.23-2.58,4.2,0,8.28.53,12.24,1.6,3.96,1.07,7.48,2.73,10.57,4.99,3.09,2.26,5.53,5.16,7.33,8.73,1.79,3.56,2.69,7.78,2.69,12.64h12.06c0-5.22-.93-10.15-2.78-14.78-1.85-4.63-4.64-8.7-8.35-12.2-3.71-3.5-8.38-6.26-14.01-8.28-5.63-2.02-12.22-3.03-19.76-3.03s-13.98.95-19.67,2.85c-5.69,1.9-10.42,4.45-14.19,7.66-3.77,3.21-6.62,6.89-8.53,11.04-1.92,4.16-2.88,8.43-2.88,12.82,0,6.3,1.17,11.49,3.52,15.58,2.35,4.1,5.41,7.45,9.18,10.06,3.77,2.61,8.1,4.69,12.99,6.23,4.89,1.55,9.89,2.88,15.03,4.01,5.13,1.13,10.14,2.29,15.03,3.47,4.89,1.19,9.21,2.76,12.99,4.72,3.77,1.96,6.83,4.48,9.18,7.57,2.35,3.09,3.53,7.12,3.53,12.11,0,3.56-.65,6.95-1.95,10.15-1.3,3.21-3.31,6.03-6.03,8.46-2.72,2.43-6.25,4.36-10.57,5.79-4.33,1.43-9.46,2.14-15.4,2.14-5.07,0-9.83-.56-14.29-1.69-4.45-1.13-8.38-2.94-11.78-5.43-3.4-2.49-6.19-5.73-8.35-9.71-2.17-3.98-3.5-8.82-3.99-14.51H0c0,7.01,1.21,13.09,3.62,18.26,2.41,5.16,5.78,9.5,10.11,13,4.33,3.5,9.46,6.12,15.4,7.84,5.94,1.72,12.37,2.58,19.29,2.58,15.46,0,27.46-3.27,35.99-9.79,8.53-6.53,12.8-15.73,12.8-27.61,0-6.17-1.08-11.31-3.25-15.41-2.16-4.1-5.04-7.45-8.63-10.06Z"/>
  <path class="cls-1" d="m252.3,79.79c0,7.6-.68,14.19-2.04,19.77-1.36,5.58-3.59,10.24-6.68,13.98-3.09,3.74-7.14,6.53-12.15,8.37-5.01,1.84-11.1,2.76-18.27,2.76-13.73,0-23.69-3.5-29.87-10.51-6.19-7-9.28-18.46-9.28-34.37V3.38h-12.61v79.97c0,16.39,4.27,29.09,12.8,38.11,8.53,9.03,21.52,13.54,38.96,13.54s30.27-4.42,38.87-13.27c8.6-8.84,12.89-21.64,12.89-38.38V3.38h-12.62v76.4Z"/>
  <polygon class="cls-1" points="398.86 116.48 398.49 116.48 354.71 3.38 335.41 3.38 335.41 131.61 348.03 131.61 348.03 17.28 348.4 17.28 392.37 131.61 404.24 131.61 448.02 17.28 448.4 17.28 448.4 131.61 461.01 131.61 461.01 3.38 441.9 3.38 398.86 116.48"/>
  <path class="cls-1" d="m803.38,82.19c-2.16-4.1-5.04-7.45-8.63-10.06-3.59-2.61-7.7-4.69-12.34-6.23-4.64-1.54-9.43-2.88-14.38-4.01-4.95-1.13-9.8-2.2-14.56-3.21-4.76-1.01-9.12-2.32-13.08-3.92-3.96-1.6-7.3-3.65-10.02-6.14-2.72-2.49-4.45-5.82-5.2-9.97-.62-3.32-.43-6.65.56-9.97.99-3.32,2.78-6.35,5.38-9.08,2.6-2.73,6.09-4.96,10.48-6.68,4.39-1.72,9.8-2.58,16.23-2.58,4.2,0,8.28.53,12.24,1.6,3.96,1.07,7.48,2.73,10.57,4.99,3.09,2.26,5.53,5.16,7.33,8.73,1.79,3.56,2.69,7.78,2.69,12.64h12.06c0-5.22-.93-10.15-2.78-14.78-1.85-4.63-4.64-8.7-8.35-12.2-3.71-3.5-8.38-6.26-14.01-8.28-5.63-2.02-12.22-3.03-19.76-3.03s-13.98.95-19.67,2.85c-5.69,1.9-10.42,4.45-14.19,7.66-3.77,3.21-6.62,6.89-8.53,11.04-1.92,4.16-2.88,8.43-2.88,12.82,0,6.3,1.17,11.49,3.52,15.58,2.35,4.1,5.41,7.45,9.18,10.06,3.77,2.61,8.1,4.69,12.99,6.23,4.89,1.55,9.89,2.88,15.03,4.01,5.13,1.13,10.14,2.29,15.03,3.47,4.89,1.19,9.21,2.76,12.99,4.72,3.77,1.96,6.83,4.48,9.18,7.57,2.35,3.09,3.53,7.12,3.53,12.11,0,3.56-.65,6.95-1.95,10.15-1.3,3.21-3.31,6.03-6.03,8.46-2.72,2.43-6.25,4.36-10.57,5.79-4.33,1.43-9.46,2.14-15.4,2.14-5.07,0-9.83-.56-14.28-1.69-4.45-1.13-8.38-2.94-11.78-5.43-3.4-2.49-6.19-5.73-8.35-9.71-2.16-3.98-3.5-8.82-3.99-14.51h-12.24c0,7.01,1.21,13.09,3.62,18.26,2.41,5.16,5.78,9.5,10.11,13,4.33,3.5,9.46,6.12,15.4,7.84,5.94,1.72,12.37,2.58,19.29,2.58,15.46,0,27.46-3.27,35.99-9.79,8.53-6.53,12.8-15.73,12.8-27.61,0-6.17-1.08-11.31-3.25-15.41Z"/>
  <path class="cls-1" d="m588.44.03c-36.94,0-66.99,30.05-66.99,66.99s30.05,66.99,66.99,66.99,66.99-30.05,66.99-66.99S625.38.03,588.44.03Zm0,121.95c-30.3,0-54.96-24.66-54.96-54.96s24.65-54.96,54.96-54.96,54.96,24.65,54.96,54.96-24.66,54.96-54.96,54.96Z"/>
</svg>